<?xml version="1.0" encoding="UTF-8"?>
<svg width="19px" height="19px" viewBox="0 0 19 19" version="1.1" xmlns="http://www.w3.org/2000/svg" xmlns:xlink="http://www.w3.org/1999/xlink">
    <!-- Generator: Sketch 58 (84663) - https://sketch.com -->
    <title>Search Icon</title>
    <desc>Created with Sketch.</desc>
    <g id="Page-1" stroke="none" stroke-width="1" fill="none" fill-rule="evenodd">
        <g id="Home" transform="translate(-320.000000, -41.000000)" fill="#7A18FF">
            <g id="Search-Icon" transform="translate(320.000000, 41.000000)">
                <path d="M13.1458333,11.5833333 L12.3229167,11.5833333 L12.03125,11.3020833 C13.0520833,10.1145833 13.6666667,8.57291667 13.6666667,6.89583333 C13.6666667,3.15625 10.6354167,0.125 6.89583333,0.125 C3.15625,0.125 0.125,3.15625 0.125,6.89583333 C0.125,10.6354167 3.15625,13.6666667 6.89583333,13.6666667 C8.57291667,13.6666667 10.1145833,13.0520833 11.3020833,12.03125 L11.5833333,12.3229167 L11.5833333,13.1458333 L16.7916667,18.34375 L18.34375,16.7916667 L13.1458333,11.5833333 L13.1458333,11.5833333 Z M6.89583333,11.5833333 C4.30208333,11.5833333 2.20833333,9.48958333 2.20833333,6.89583333 C2.20833333,4.30208333 4.30208333,2.20833333 6.89583333,2.20833333 C9.48958333,2.20833333 11.5833333,4.30208333 11.5833333,6.89583333 C11.5833333,9.48958333 9.48958333,11.5833333 6.89583333,11.5833333 L6.89583333,11.5833333 Z" id="Shape"></path>
            </g>
        </g>
    </g>
</svg>